<?xml version="1.0" encoding="utf-8"?>
<!-- Generator: Adobe Illustrator 24.0.0, SVG Export Plug-In . SVG Version: 6.00 Build 0)  -->
<svg version="1.1" id="Layer_1" xmlns="http://www.w3.org/2000/svg" xmlns:xlink="http://www.w3.org/1999/xlink" x="0px" y="0px"
	 viewBox="0 0 841.9 595.3" style="enable-background:new 0 0 841.9 595.3;" xml:space="preserve">
<style type="text/css">
	.st0{fill:#0A51A1;}
</style>
<g id="_x23_0a51a1ff">
	<path id="path6" class="st0" d="M121.8,222.8c3.5-1.8,7.7-2.1,11.3-0.3c24.9,11.5,49.9,22.6,74.6,34.3c5.5,1.8,6.5,10.4,1.1,12.9
		c-19.9,9.8-40.4,18.5-60.4,28c19.3,8.8,38.5,17.7,57.8,26.5c3.2,1.4,6.8,4,6.2,8c-0.1,4.4-4.6,6.3-7.9,8
		c-23.8,10.9-47.5,21.7-71.2,32.6c-3.7,1.9-8.1,1.6-11.7-0.3c-15.6-7.3-31.4-14.3-47-21.6c17.2-7.8,34.3-15.8,51.6-23.6
		c1.7-1.3,5.7-1.6,5.2-4.5c-3.6-3.6-8.8-4.8-13.2-7.1c-2.1-0.6-4.3-2.7-6.5-1.2c-19.6,8.9-39.1,18-58.7,26.7
		c0.1-10.6-0.1-21.3,0.1-31.9c8.5-3.8,17.1-7.7,25.5-11.7c-8.5-3.9-17-7.8-25.6-11.7c0-10.6,0-21.3,0-31.9
		c20.1,9.3,40.3,18.3,60.3,27.7c5.9-2.6,12-5.1,17.7-8.1c1.3-2.9-1.8-4.2-3.9-5c-17.5-8-35.1-16-52.6-24.1
		C90.3,237.2,106,230,121.8,222.8z"/>
	<path id="path8" class="st0" d="M287.9,259.1c22.4,0,44.7-0.1,67.1,0c10,0.5,21,0.6,29.3,6.9c6.2,4.4,7.7,13.3,4.9,20.1
		c-2.6,5.7-8.4,8.7-14,10.9c5.7,2.3,11.7,5.5,14.2,11.5c2.6,7.3,1.1,16.7-5.7,21.3c-8.3,5.8-18.9,5.9-28.7,6.3
		c-22.4-0.1-44.7,0.2-67.1-0.2C288.1,310.4,287.9,284.7,287.9,259.1 M313,276c-0.1,8.8,0,17.7,0,26.5c3.9-5.3,5.8-13.9,13.4-15
		c10-0.5,20.1,0.3,30.1-0.3c3.4-0.2,7-2.5,6.8-6.3c-0.8-3-3.7-5-6.7-4.9C342.1,275.9,327.6,276.1,313,276 M313,303.8
		c0,10.2-0.1,20.5,0,30.7c3.8-4.8,5.2-12.3,11.4-14.4c10-0.9,20.2,0.2,30.2-0.5c4.7,0.1,9.6-4.5,8.3-9.5c-0.8-4.4-6-6.5-10-6.3
		C339.6,303.7,326.3,303.8,313,303.8z"/>
	<path id="path10" class="st0" d="M433.5,259.1c10.6,0.1,21.3-0.2,31.9,0.2c15,25.8,30.8,51.1,46,76.8c-9.8,0.1-19.5,0-29.3,0.1
		c-2.5-4.3-5-8.7-7.4-13l-1-0.7c-14,0.1-28,0.1-42,0c4-5.4,5.7-13.6,12.7-16.1c6.9-0.7,13.7-0.1,20.6-0.3
		c-5.3-9.1-10-18.5-15.8-27.3c-10.8,19.2-21.7,38.3-32.7,57.4c-9.7-0.1-19.5,0-29.2-0.1C402.6,310.3,418.2,284.8,433.5,259.1z"/>
	<path id="path12" class="st0" d="M564.9,259.1c8.3,0,16.7,0,25,0c0.1,17.6,0,35.2,0.1,52.8c0,6.3-0.9,13.4-5.8,17.9
		c-6.1,6-15.3,6.3-23.4,6.3c-12.7-0.2-25.4,0.3-38.1-0.2c-7.6-1.7-9.5-10.6-13.6-16.2c15.4-0.2,30.7,0.2,46.1-0.1
		c4.4,0.1,10-2.6,9.7-7.7C564.9,294.3,564.9,276.7,564.9,259.1z"/>
	<path id="path14" class="st0" d="M632.7,259.3c10.6-0.2,21.2-0.1,31.8-0.1c15.3,25.7,30.9,51.2,46.2,77c-9.8,0-19.6,0.1-29.4-0.1
		c-2.5-4.6-5.1-9.1-7.7-13.6c-14.2,0-28.4,0-42.6,0c3.8-5.3,5.6-12.8,11.8-16c7.1-0.9,14.3-0.2,21.4-0.5
		c-5.1-9.2-10.4-18.3-15.5-27.5c-11.1,19.1-21.8,38.4-32.9,57.6c-9.8,0-19.5,0-29.3,0C601.9,310.5,617.4,284.9,632.7,259.3z"/>
	<path id="path16" class="st0" d="M764.4,259.2c8.2,0,16.4,0,24.6,0c0,18.8,0,37.7,0,56.5c0.1,6.2-2.5,12.7-7.7,16.1
		c-7,4.6-15.7,4.3-23.7,4.3c-11.6-0.2-23.1,0.2-34.6-0.2c-8.5-0.7-10.2-10.6-14.6-16.3c15.2,0.1,30.4,0.2,45.7,0
		c4.5,0.1,10.4-2.5,10.3-7.7C764.5,294.3,764.3,276.7,764.4,259.2z"/>
</g>
</svg>
