<?xml version="1.0" encoding="utf-8"?>
<!-- Generator: Adobe Illustrator 25.4.1, SVG Export Plug-In . SVG Version: 6.00 Build 0)  -->
<svg version="1.0" id="katman_1" xmlns="http://www.w3.org/2000/svg" xmlns:xlink="http://www.w3.org/1999/xlink" x="0px" y="0px"
	 viewBox="0 0 841.9 595.3" style="enable-background:new 0 0 841.9 595.3;" xml:space="preserve">
<style type="text/css">
	.st0{fill-rule:evenodd;clip-rule:evenodd;fill:#E53517;}
</style>
<g>
	<path class="st0" d="M652.1,276.3h-70.6c0-2,3.2-3.6,3.2-21.8v-56.7c0-17.5-3.2-19.8-3.2-21.6h38.3c0,1.5-2.7,4.8-2.7,21.9v57.5
		c4.9,0.9,9.9,1.3,14.9,1.3c18.4,0,20.2-3,22.9-3L652.1,276.3L652.1,276.3z M321.1,322.7c-2.1,4.8-3.2,9.5-3.2,21.2v62.3
		c0.2,11.1,3.2,14.8,3.2,16.2h-23.3c-4.9-2.1-10.4-8.2-17.3-15.8c-5.7-6.2-32.7-37.1-32.7-37.1l-0.4,0c0,0,0,29.2,0,29.8
		c-8.2,0.9-16.3,2.5-24.2,4.7v-60.2c0-17.5-3.2-19.7-3.2-21.6h28.2l45.6,54.7v-33.1c0-17.5-3.2-19.8-3.2-21.6h30.7L321.1,322.7
		L321.1,322.7z M712,375.4c0,34.2-25.2,61.4-67.2,61.4c-32.6,0-42.9-14.2-83.4-14.4h-16.8c0-2,3.2-3.6,3.2-21.8v-56.8
		c0-17.4-3.2-19.8-3.2-21.6h38.8c0,1.2-3.2,5.9-3.2,21.9v61c24.2,0,34.6,7.3,55.8,7.3c29.4,0,43.5-16.2,43.5-39
		c0-19.6-10.1-34.2-27.7-34.2l-11.3,0v62c-10.8,0.5-23.1-0.9-32.4-4.1v-53.2c0-17.5-3.2-19.8-3.2-21.6h45.3
		C688.2,322.2,712,345.3,712,375.4L712,375.4z M535.1,401.6l-2.6,20.8h-68.6c0-2,3.3-3.6,3.3-21.8v-56.8c0-17.5-3.3-19.8-3.3-21.6
		h66.8l2.5,20.2c-1.4,0-5.8-3.2-20.7-3.2h-12.9v23.6h2.7c16.1,0,20.1-1.6,21.8-1.6v20.7c-1.4,0-6.1-2-21.4-2h-3.1v23.6
		c4.4,0.8,8.8,1.1,13.3,1.1C532.4,404.4,531.7,401.8,535.1,401.6L535.1,401.6z M369.7,365.9h2.7c16.1,0,20.1-1.6,21.8-1.6V385
		c-1.3,0-6.1-2-21.4-2h-3.1v17.1c0,19.7,3.5,20.3,3.5,22.2h-39.2c0-2,3.2-3.6,3.2-21.8v-56.8c0-17.5-3.2-19.8-3.2-21.6h66.8
		l2.5,20.2c-1.4,0-5.8-3.2-20.7-3.2h-12.9L369.7,365.9L369.7,365.9L369.7,365.9z M447.3,343.8v56.8c0,18.3,3.3,19.8,3.3,21.8h-38.8
		c0-2,3.2-3.6,3.2-21.8v-56.8c0-17.5-3.2-19.8-3.2-21.6h38.8C450.6,324.1,447.3,326.2,447.3,343.8L447.3,343.8z M274.5,422.4
		c-39.7,0.4-49.1,21.9-99.5,21.9c-15.5-0.2-30.9-2.3-45.9-6.3c0-2,3.2-3.6,3.2-21.7v-91.9c0-18.2-3.2-24.6-3.2-25.5h81.4l2.7,22.6
		c-0.9,0-7.5-3.2-24.7-3.2H167v39.1h10.5c17.7,0,27.3-1.8,28.8-1.8v23.5h-0.8c-3.3-1.2-14.3-2.3-27.6-2.3h-10.6v39
		c43.1,9.9,60.4-7.7,96.7-7.7c1,0,1.7,0,2.7,0c4,5.1,8.3,9.8,12.9,14.2L274.5,422.4L274.5,422.4z M221.8,217.5v-45.7h11
		c12.9,0,18.3,7.5,18.3,19.6c0,14.7-8.7,26.1-22.4,26.1L221.8,217.5L221.8,217.5z M342.2,173.7c-31.2,0-52.8,19.2-52.8,46.6
		c0,39.8,42.3,45.5,56.9,32.6l-2.5-5.2c-12.8,2.6-24.4-7.2-24.4-29c0-17.7,9.3-28.8,22.3-28.8c14.9,0,24.3,15.1,24.3,36.8
		c0,24.7-14.2,43.4-40.9,43.4c-30.4,0-53.5-24-67.5-47.9c15.7-6.2,24.9-17.9,24.9-34.1c0-20.9-15.6-35.4-44-35.4l-53.3,0
		c0,0.8,3.3,7.3,3.3,25.4v76.3c0,18.2-3.3,19.8-3.3,21.8h39.9c0-1-3.3-7.6-3.3-21.8c0-11.8,0-21.1,0-21.1h4.9
		c27.7,40.5,59.1,57.3,92.7,57.3c48.6,0,77.4-30.6,77.4-65C396.8,197,374.7,173.7,342.2,173.7L342.2,173.7L342.2,173.7z
		 M454.1,254.1c0,18.3,3.5,20.8,3.5,22.2h-39.1v-0.5c3.9-6.6,3.2-13.5,3.2-21.5V234l-24.3-45.7c-2.6-4.9-4.5-8.1-8.5-11.7v-0.5
		l34.3,0l20.3,41.8l11.2-22.8c7.1-14.2,1.4-16.2,1.4-19l27.2,0c0,1.5-28.8,56.9-29.2,58.9L454.1,254.1L454.1,254.1z M506.5,235.8
		l9.2-28h0.2l9.7,28H506.5L506.5,235.8z M535.4,176.1h-33.2c0,3.1,4.7,1.7-1.7,21.5l-21,60.7c-2.7,7.8-3.2,10-8.4,17.5v0.5l27.7,0
		c0-2.5-4.9-3.4,0.8-19.9l1.5-4.3h30.1c1.2,3.4,4.4,11.1,4.3,16.4c-0.1,4.2-1.6,6.8-1.6,7.9h40.1v-0.5c-4.4-5.5-6.3-11.6-9.9-21.3
		L535.4,176.1L535.4,176.1z"/>
</g>
</svg>
